<svg xmlns="http://www.w3.org/2000/svg" viewBox="0 0 1189.98 266.13"><g id="Layer_2" data-name="Layer 2"><g id="Layer_1-2" data-name="Layer 1"><path d="M143.12,236.53q-12,0-16.84-9.36t-4.89-21.87a79.27,79.27,0,0,1,3.12-22q3.12-10.86,7.47-16.57-7.33,8.7-18.19,19.83A252.27,252.27,0,0,1,89.89,208,149,149,0,0,1,63,225.13a62,62,0,0,1-27.42,6.79,47.44,47.44,0,0,1-8-.68,34.82,34.82,0,0,1-7.74-2.31A27.58,27.58,0,0,1,4.89,214.4Q0,203.95,0,189.28A117,117,0,0,1,5.3,156a179.71,179.71,0,0,1,15.61-36.25,199.59,199.59,0,0,1,11-17.79,169.08,169.08,0,0,1,13.17-16.7A104.87,104.87,0,0,1,29.6,76.72a59,59,0,0,1-12-10.46,25.34,25.34,0,0,1-4.89-9,33.48,33.48,0,0,1-1.63-10q0-8.69,4.08-11.4a3.87,3.87,0,0,1,3.26-2.18c1.63,0,2.44,1,2.44,3a9,9,0,0,1-1.09,4.07,18.41,18.41,0,0,0-1.35,6.52,15.39,15.39,0,0,0,2.17,8,41,41,0,0,0,5.16,6.93Q34.49,72.51,49.7,79.3A306.26,306.26,0,0,1,87.85,44.13a189.33,189.33,0,0,1,44.67-25.94,131.55,131.55,0,0,1,50.24-9.77q22,0,34.49,9.64t12.5,24.85q0,7.34-4.35,15.88T211.28,75.36q-9.78,8-25.94,13.85t-40.05,8q-8.43.81-15.07,1.22T116,98.85A190.42,190.42,0,0,1,88.67,97a168,168,0,0,1-26.21-6q-4.89,6.8-12.36,18.47t-14.8,25a246.82,246.82,0,0,0-12.22,25.25,160.89,160.89,0,0,0-6.51,20.78,74.17,74.17,0,0,0-2.18,16.7q0,13.31,6.25,20t16.84,6.65q10.31,0,23.49-6t27.56-17.93A288.41,288.41,0,0,0,116.64,173a368.41,368.41,0,0,0,25.12-30.42,248.94,248.94,0,0,0,18.46-28.51q4.62-8.69,9-12.36T176.52,98a5.31,5.31,0,0,1,4.61,2.3,10.37,10.37,0,0,1,1.63,6.11q0,7.6-6.78,15.21A132,132,0,0,0,161,142.3a203.59,203.59,0,0,0-13,25.8,131.32,131.32,0,0,0-8.14,26.61,70.9,70.9,0,0,0-1.09,8.15q-.27,3.81-.27,6.79,0,10,3.12,14.39a9.71,9.71,0,0,0,8.28,4.35q6.25,0,14.4-5.71a77.05,77.05,0,0,0,15.75-15.2q6.51-8.7,12.63-18.47A224.85,224.85,0,0,0,204,168.64a6.17,6.17,0,0,1,2.3-2.85,5.23,5.23,0,0,1,2-.95c.9,0,1.36.54,1.36,1.63a10.24,10.24,0,0,1-.82,3.26q-2.43,5.43-6.51,13t-9,15.62a175,175,0,0,1-10,14.8,72,72,0,0,1-17.79,16.29A40.13,40.13,0,0,1,143.12,236.53ZM113.51,92.33q14.13,0,31.51-1.63,22.53-1.89,39.1-9t25.53-17.92a37.08,37.08,0,0,0,9-24.17q0-12-9.91-18.2t-25.12-6.24q-25.26,0-46,9.91a151.33,151.33,0,0,0-38,25.93A381.19,381.19,0,0,0,66.81,85.54Q87.44,92.33,113.51,92.33Z"/><path d="M253.91,221.05a21.2,21.2,0,0,1-13.17-6.92q-5.85-6.1-8-16.43c-.18-1.26-.32-2.4-.41-3.39s-.13-2.13-.13-3.4q0-10.86,4.88-17.51t9-6.93a26.75,26.75,0,0,0,10.59-2,33.9,33.9,0,0,0,10.86-6.38q7.88-6.24,7.87-12.76,0-6.79-7.87-6.79-4.35,0-11,3t-15.34,10.32q-10.87,9.23-22.54,24.71a90.91,90.91,0,0,0-3.8,10.45,138.42,138.42,0,0,0-3.67,14.26,63.91,63.91,0,0,0-1.49,12.49q0,4.08,1.35,5.43H193.9c-2,0-3-.81-3-2.44a3.08,3.08,0,0,1,.27-1.36,9,9,0,0,0,.54-2.17,141.8,141.8,0,0,1,10.05-26.61q6.24-12.49,12.49-26.35-9.51,17.66-17.24,31.1T185.2,208.56a1.8,1.8,0,0,1-1.35.55c-.72,0-1.23-.45-1.5-1.36A2.9,2.9,0,0,1,183,205a194.74,194.74,0,0,0,13.17-20.91q7.47-13.31,15.89-29.73t17.11-33.27q8.69-16.83,17-31.77t15.07-25.26q4.89-7.34,9.24-10.46a15.23,15.23,0,0,1,9-3.12h1.36a22,22,0,0,1,5.56.82,13,13,0,0,0,5.84.27Q287,55.67,279.71,64.9a264,264,0,0,0-15.48,22q-8.14,12.76-16.43,27.16t-15.61,28.51C230.37,146.2,228.66,150,227,154s-3.17,8-4.62,12q5.7-7.06,13-14.67a159.48,159.48,0,0,1,15.35-14,59.56,59.56,0,0,1,15.88-9.37q9-3.27,14.94-3.26,6.24,0,9.1,3a10.55,10.55,0,0,1,2.85,7.6q0,5.16-4.07,12.36A38.94,38.94,0,0,1,278.35,160,84.08,84.08,0,0,1,265.86,167a47.13,47.13,0,0,1-15.48,3.8,34.3,34.3,0,0,0-2.31,7.74,45.86,45.86,0,0,0-.68,7.74,35,35,0,0,0,4.89,18.61q4.89,8,12.77,8a19.14,19.14,0,0,0,8.28-2.17,33.72,33.72,0,0,0,9.37-7.34q5.43-5.43,11-15.48t11.27-22c.72-1.45,1.53-2.18,2.44-2.18,1.09,0,1.63.73,1.63,2.18a6.3,6.3,0,0,1-.82,2.71q-7.87,18.2-15.07,28.92t-13.85,16q-6.66,5.29-12.9,6.65A41.44,41.44,0,0,1,253.91,221.05Z"/><path d="M312,219.15q-10,0-14.13-5.84a22.93,22.93,0,0,1-4.07-13.44,37.79,37.79,0,0,1,.95-8.28,55.2,55.2,0,0,1,2.31-7.74l18.2-46.44a11.06,11.06,0,0,0,.81-3.8,8.33,8.33,0,0,0-1.36-4.75l-1.9-2.85,14.94-.55c2.71-.17,4.66.14,5.84,1a3.5,3.5,0,0,1,1.76,2.86c0,1.08-.64,3.08-1.9,6l-22.54,53c-2,4.52-3.08,7.15-3.26,7.87-.54,2.72-.91,4.44-1.09,5.16a8.35,8.35,0,0,0-.27,1.36v2.17a9.92,9.92,0,0,0,1.77,6c1.17,1.62,3.21,2.44,6.11,2.44a15.15,15.15,0,0,0,6.24-1.63,18,18,0,0,0,5.16-3.26,95.69,95.69,0,0,0,13.45-18.6q6.65-11.53,12.35-22.95c.72-1.81,1.63-2.71,2.72-2.71.9,0,1.36.63,1.36,1.9a10.3,10.3,0,0,1-.82,3.26q-2.71,5.7-6.79,14.12a136.17,136.17,0,0,1-9.64,16.7,64.59,64.59,0,0,1-12.08,13.71A21.6,21.6,0,0,1,312,219.15ZM334,108.9a8.57,8.57,0,0,1-6.65-2.85,10,10,0,0,1-2.58-6.93,11.9,11.9,0,0,1,4.07-9,12.91,12.91,0,0,1,9-3.8,9.62,9.62,0,0,1,7.07,2.71,9,9,0,0,1,2.71,6.52,12.74,12.74,0,0,1-4.07,9.23A13,13,0,0,1,334,108.9Z"/><path d="M411.42,219.15q-7.34,0-12.22-7.33a24.11,24.11,0,0,1-2.45-5.7,26.86,26.86,0,0,1-1.08-7.88,48.19,48.19,0,0,1,.27-5,29.35,29.35,0,0,1,1.08-5.3q-3.79,6-8.82,13.17a63,63,0,0,1-11.41,12.5,21.48,21.48,0,0,1-20,4.48q-7.33-2.17-10.45-7.61a25.63,25.63,0,0,1-3.13-13,58,58,0,0,1,3.4-18.47,117.36,117.36,0,0,1,8.69-19.55,103.63,103.63,0,0,1,11-16.29,65.29,65.29,0,0,1,18.74-15.21,44.83,44.83,0,0,1,21.45-5.71A35.71,35.71,0,0,1,425,127.36q4.06-7.59,8.69-17t9.23-18.6q4.62-9.23,8.15-17T456.5,63q4.06-9.49,7.74-12.08a14.91,14.91,0,0,1,8.82-2.58,37.22,37.22,0,0,1,6.66.68,27.38,27.38,0,0,0,7.19.4q-1.62,1.63-6.65,9.37T468.45,78.48q-6.79,12-14.53,26.21t-15.21,28.78Q431.24,148,424.86,160.9T414.68,183a68.31,68.31,0,0,0-3.13,8.82,40.56,40.56,0,0,0-2,11.54,11.15,11.15,0,0,0,1.63,6.11c1.08,1.73,2.89,2.58,5.43,2.58q5.15,0,10.45-5.29a75.09,75.09,0,0,0,10.19-13q4.89-7.74,8.69-15.21t5.7-11.81q1.35-3,3.26-3c1.08,0,1.63.82,1.63,2.45v1a2.7,2.7,0,0,1-.55,1.49q-2.43,5.7-6.65,14.12a148.38,148.38,0,0,1-9.91,16.84,61.74,61.74,0,0,1-12.76,14A24.11,24.11,0,0,1,411.42,219.15Zm-47-8.14q3.8,0,9.5-4.21t12.22-13.45q7.6-10.84,17.38-27.15t19.28-34.49a11.66,11.66,0,0,0-8.14-3.26q-7.6,0-17,7.06a106.31,106.31,0,0,0-18.19,17.92,139.74,139.74,0,0,0-14.8,22,69.92,69.92,0,0,0-5.84,13.85,40.74,40.74,0,0,0-1.77,10.86Q357.1,211,364.44,211Z"/><path d="M597.16,266.13a123.48,123.48,0,0,1-34.89-4.88A95.35,95.35,0,0,1,532.67,247a69.14,69.14,0,0,1-20.37-23.08q-7.47-13.71-7.47-31.64a90.82,90.82,0,0,1,3.26-23.36,46.69,46.69,0,0,1,8.69-16.83,65.78,65.78,0,0,1,13.31-12.9c4.7-3.35,8.51-5.12,11.4-5.3,2.18,0,3.26.46,3.26,1.36,0,1.09-.91,2-2.71,2.72q-4.62,1.62-10.59,7.6a62.85,62.85,0,0,0-17.11,35,63.6,63.6,0,0,0-.82,10q0,15.75,6.79,26.88a54.1,54.1,0,0,0,17.92,18.06,81.1,81.1,0,0,0,24.31,10,113.4,113.4,0,0,0,26.21,3.12A94.22,94.22,0,0,0,611,246.31q28.79-6.51,50.24-19.14a161,161,0,0,0,36.8-29.2A194.54,194.54,0,0,0,724,163.08a249.71,249.71,0,0,0,17.38-36.26,30.43,30.43,0,0,0-8.56,1.09,41.69,41.69,0,0,0-7.74,3.26c-.54.18-1.54.5-3,1a12.27,12.27,0,0,1-3.25.68c-1.63,0-2.45-.55-2.45-1.63a6.63,6.63,0,0,1,1.09-3,24.47,24.47,0,0,1,6.79-6.38,24.22,24.22,0,0,1,10.32-4.21H744.9q5.15-12.77,11.27-26.48T768,64.9q5.7-12.48,10.32-22t6.79-13.85q-14.94,1.62-31,2.85t-31.5,3.8A135.14,135.14,0,0,0,693.3,44a79.21,79.21,0,0,0-25.12,16.16,80.72,80.72,0,0,0-17.25,23.36,60.71,60.71,0,0,0-6.24,26.75q0,13.3,7.33,22t19.28,8.69a32,32,0,0,0,5.7-.54,44.15,44.15,0,0,0,6.25-1.63,28.19,28.19,0,0,0,11-7.87A47.88,47.88,0,0,0,702,118.67a74.66,74.66,0,0,0,4.48-13.3A50.08,50.08,0,0,0,708,94.78c0-2.18-.27-3.62-.81-4.35a4.31,4.31,0,0,1-1.09-2.71c0-1.27.55-1.91,1.63-1.91a3.32,3.32,0,0,1,3,2.18A30.82,30.82,0,0,1,713,95.05a37.52,37.52,0,0,1,.68,7.06,38.78,38.78,0,0,1-4.35,17.79,52,52,0,0,1-11.13,14.8,45.49,45.49,0,0,1-14.67,9.23,39.36,39.36,0,0,1-7.33,2,42,42,0,0,1-7.33.68,38.53,38.53,0,0,1-20.78-5.84A43.85,43.85,0,0,1,633,124.92a44.34,44.34,0,0,1-5.7-22.27q0-17.37,7.87-30.82a72.35,72.35,0,0,1,21.59-22.95A103.79,103.79,0,0,1,687.6,34.49,194,194,0,0,1,722,27.7q17.77-1.89,35-2.85t31.64-2.31q1.08-1.63,4.48-6.25A101.05,101.05,0,0,1,801,6.92q4.47-4.74,8.82-6.11A21.77,21.77,0,0,1,815.5,0a12.2,12.2,0,0,1,7.06,2q3,2,3,6.38,0,6.51-5.84,11a43.82,43.82,0,0,1-13.58,6.92A45,45,0,0,1,793,28.79q-3,6-7.06,15.61t-8.28,20.91q-4.22,11.28-8.28,21.86t-7.2,18.74l-4.48,11.68q18.47,0,36.12,1.08T826.23,121q14.81,1.23,24.31,1.22,1.08-3.26,4.34-11.67t8.15-20q4.89-11.55,10.72-23.9T886,43.18a145.05,145.05,0,0,1,12.49-18.74q6.1-7.6,11.27-9.5a57.14,57.14,0,0,1,9.37-2.86,33.23,33.23,0,0,1,5.56-.67c1.09,0,1.63.18,1.63.54,0,.54-1.27,1.45-3.8,2.71q-1.9.83-7.74,8.83t-14,22q-8.14,14-17.24,33.4a437.86,437.86,0,0,0-17.24,43q4.34,0,11.4-.27T888,120a4.39,4.39,0,0,1,1.9-.54h1.36c1.09,0,1.63.27,1.63.81,0,.73-.91,1.73-2.72,3a32.64,32.64,0,0,1-12.76,5.43,83.64,83.64,0,0,1-13.85,1.9q-1.37,4.89-4.21,13.72t-6,19.41q-3.14,10.59-5.3,21.05a92.45,92.45,0,0,0-2.17,18.6q0,9.78,3.53,13.58a9,9,0,0,0,6.79,3.26,13.39,13.39,0,0,0,8.42-3.26,62.41,62.41,0,0,0,13.17-13.44,174.45,174.45,0,0,0,11.4-17.65q5.29-9.37,9.64-18.06c1.27-2.54,2.54-3.8,3.81-3.8.9,0,1.35.63,1.35,1.9a8.81,8.81,0,0,1-1.08,3.8q-5.7,12-10.32,20.64a139.59,139.59,0,0,1-9.78,15.88,109.13,109.13,0,0,1-13,14.8,42.18,42.18,0,0,1-9.64,6.66,25.09,25.09,0,0,1-11.55,2.85,20.57,20.57,0,0,1-9.77-2.44A17.38,17.38,0,0,1,831,219a38.27,38.27,0,0,1-2.44-14.26,97,97,0,0,1,2.31-20.09,207.05,207.05,0,0,1,5.7-21.32q3.39-10.46,6.65-19.15t4.89-13.58q-4.62,0-16-.4t-25.66-.82q-14.26-.41-28-1.09t-23-1a268.56,268.56,0,0,1-21.86,47.94A221.29,221.29,0,0,1,702,217.52a177.25,177.25,0,0,1-40.33,31.64,128.1,128.1,0,0,1-47.93,15.89q-2.72.27-7.88.68C602.41,266,599.52,266.13,597.16,266.13ZM798.12,22q10.32-1.63,13.72-4.48c2.26-1.91,3.39-3.58,3.39-5a4,4,0,0,0-1-2.71,2.73,2.73,0,0,0-2-1.09q-1.08-.81-3.8,1.63a58.63,58.63,0,0,0-5.56,5.84Q800,19.55,798.12,22Z"/><path d="M912.18,219.15q-10.33,0-15.21-6.92t-4.89-17a64.76,64.76,0,0,1,5.7-25.53,97.2,97.2,0,0,1,13.85-22.81,80,80,0,0,1,18.2-16.7q9.78-6.39,19-6.39,10.32,0,15.21,6.79t4.88,17.11a63.44,63.44,0,0,1-5.7,25.53A106.49,106.49,0,0,1,954,189.42a101.74,101.74,0,0,1-13.58,16.16,14.35,14.35,0,0,0,4.62,5q3,2,8.14,2c4.35,0,8.46-1.81,12.36-5.43A66.1,66.1,0,0,0,976.27,194,160.31,160.31,0,0,0,985,178.42q3.79-7.87,6.24-12.76a2.81,2.81,0,0,1,2.72-1.63,1.76,1.76,0,0,1,1.63.95q.54.95-.27,2.85-1.63,4.06-5.43,12.08a157.2,157.2,0,0,1-9.24,16.57A63.16,63.16,0,0,1,968.12,211a23.8,23.8,0,0,1-15.75,6,24,24,0,0,1-10.32-2,21.72,21.72,0,0,1-7.06-5,54,54,0,0,1-11.41,6.79A28.71,28.71,0,0,1,912.18,219.15Zm4.07-6q7.34,0,15.75-7.06a25.83,25.83,0,0,1-3.26-6.79,22.35,22.35,0,0,1-1.08-6.52,15,15,0,0,1,2.3-8.42q2.31-3.52,7.2-3.53a7.51,7.51,0,0,1,5.84,2.58,8.54,8.54,0,0,1,2.31,5.84,7.55,7.55,0,0,1-.14,1.49,14.15,14.15,0,0,1-.4,1.5,91.94,91.94,0,0,0,8.68-14.67q9-19.28,9-31.77,0-6.24-2.45-9.78a8.33,8.33,0,0,0-7.33-3.53q-5.7,0-12.36,4.89a62.67,62.67,0,0,0-12.76,13,99.82,99.82,0,0,0-10.73,18.19,131.52,131.52,0,0,0-6.92,17.79,52.45,52.45,0,0,0-2.58,14.8,15.43,15.43,0,0,0,2.17,8.69Q911.64,213.18,916.25,213.18Z"/><path d="M1003.42,219.15a19.9,19.9,0,0,1-13.58-5.29q-6-5.3-6-16.7,0-9,3.39-22.14t8.42-27.42q5-14.26,9.91-25.94H991.2c-1.27,0-1.9-.9-1.9-2.71a4.48,4.48,0,0,1,.68-2.45,2.24,2.24,0,0,1,2-1.08h16.29q4.62-10.32,9.78-20.1t10-18.47q6.25-10.86,13.31-16.29t12.22-5.43a8.63,8.63,0,0,1,6.79,3.12q2.71,3.12,2.72,9.37a47.37,47.37,0,0,1-1.63,10.46,72.43,72.43,0,0,1-5.16,14q-1.91,3.81-5.3,10.86t-6.65,12.5h13c1.27,0,1.9.9,1.9,2.71a5.73,5.73,0,0,1-.54,2.31,1.75,1.75,0,0,1-1.63,1.22h-16a202.8,202.8,0,0,1-15.48,22.81,192.32,192.32,0,0,1-20.64,22.27c-.54,1.63-1.22,4-2,7.06s-1.54,6.21-2.17,9.37-1.4,6.93-2.31,11.27a29.37,29.37,0,0,0-.81,6.52q0,5.7,2.71,8.28a8.8,8.8,0,0,0,6.25,2.58,14.24,14.24,0,0,0,4.34-.68,18.23,18.23,0,0,0,4.89-2.58,62.43,62.43,0,0,0,16.7-18.46q7.2-11.68,12.63-22.54c1.09-2.18,2.17-3.26,3.26-3.26.72,0,1.09.54,1.09,1.63a10.32,10.32,0,0,1-.82,3q-6,12.5-10,20.1a98.12,98.12,0,0,1-7.88,12.63,82.64,82.64,0,0,1-9,9.91,24.84,24.84,0,0,1-8.69,5.7A26.76,26.76,0,0,1,1003.42,219.15Zm3.8-61.1a181,181,0,0,0,14.8-17.38q6.93-9.22,12.9-19h-12.76q-4.35,10.05-8.15,19.55T1007.22,158.05Zm17.65-42.63h13.86q3.8-7.07,7.19-13.85T1052,88a62.24,62.24,0,0,0,3.26-9.78,37.7,37.7,0,0,0,1.36-8.42c0-2.71-.64-4.07-1.9-4.07q-1.37,0-3.94,2.31a47,47,0,0,0-6.38,7.74,97.77,97.77,0,0,0-9.64,17.51Q1030,104,1024.87,115.42Z"/><path d="M1064,220.24a27.84,27.84,0,0,1-18.06-6.52q-8-6.51-8-19.82,0-12.22,6-26.21a92,92,0,0,1,15.21-24.57,73.4,73.4,0,0,1,17.65-15.21q9.78-6,18.47-6a16.74,16.74,0,0,1,10.32,3.26q4.6,3.54,4.61,10.05,0,6.8-5.16,14.94a57.79,57.79,0,0,1-14.66,15.2,53.57,53.57,0,0,1-10.32,5.71,99.63,99.63,0,0,1-12.49,4.48,39.44,39.44,0,0,1-10.32,1.76,53.58,53.58,0,0,0-2.58,8.69,50.31,50.31,0,0,0-1.22,11.14,27,27,0,0,0,2.71,12.22q2.72,5.43,10.05,5.43a27.65,27.65,0,0,0,16.29-5.16,56.73,56.73,0,0,0,13-12.9,107.29,107.29,0,0,0,9.64-15.62q3.93-7.86,6.38-13.3c1.09-2.54,2.53-3.8,4.35-3.8a1.19,1.19,0,0,1,1.35,1.35,6.44,6.44,0,0,1-.81,2.72q-3.81,8.15-8.15,17.24a101.81,101.81,0,0,1-10.32,17.11,48.3,48.3,0,0,1-14.25,12.9Q1075.38,220.24,1064,220.24Zm-4.89-47.8q3.79,0,12.76-2.85A46.36,46.36,0,0,0,1099,146.78q3.79-7.47,3.8-12.63,0-6-4.34-6-3.27,0-9,4.34t-14.13,14.67a136.66,136.66,0,0,0-9.77,14.12Q1061,168.92,1059.09,172.44Z"/><path d="M1125.62,220q-11.4,0-15.48-6.11a25.57,25.57,0,0,1-4.07-14.53,69.85,69.85,0,0,1,2.44-17.92q2.45-9.24,4.34-15.48,4.35-15.21,11-32.46t14.67-33.94q8-16.71,15.88-30,6.25-10.59,13.45-15.89t12.63-5.29a8.52,8.52,0,0,1,6.92,3.12c1.72,2.08,2.58,5.21,2.58,9.37a43.73,43.73,0,0,1-1.49,10.32,78.48,78.48,0,0,1-5,13.58,358,358,0,0,1-22.67,42.36,191,191,0,0,1-33.27,39.65q-1.1,3.54-2.85,8.28t-3.12,9.65a58.78,58.78,0,0,0-1.63,12.49c0,5.61,1.12,9.82,3.39,12.62a10.27,10.27,0,0,0,8.28,4.21,17.34,17.34,0,0,0,9.24-3.12,34.89,34.89,0,0,0,9.23-9.1,205.61,205.61,0,0,0,11.81-19.41q5.3-9.92,8-15.35,1.63-3,3.53-3c.91,0,1.36.54,1.36,1.63a6.76,6.76,0,0,1-.81,3q-2.45,5.45-6.38,14a119,119,0,0,1-9.78,17.11A58.42,58.42,0,0,1,1144,214.13,30.34,30.34,0,0,1,1125.62,220Zm4.07-61.92a186.66,186.66,0,0,0,19-23.22q9.22-13.17,17.25-27.43a277.08,277.08,0,0,0,13.44-27,49.6,49.6,0,0,0,3.12-9,34.49,34.49,0,0,0,1.22-8.15c0-2.53-.63-3.8-1.9-3.8-.72,0-1.81.68-3.26,2a51.42,51.42,0,0,0-5.7,6.92A133.76,133.76,0,0,0,1161.6,86.9q-6.11,11.68-12.36,25t-11.4,25.66Q1132.68,149.91,1129.69,158.05Z"/></g></g></svg>