<?xml version="1.0" encoding="UTF-8"?>
<svg xmlns="http://www.w3.org/2000/svg" xmlns:xlink="http://www.w3.org/1999/xlink" width="800px" height="600px" viewBox="0 0 800 600" version="1.1">
<g id="surface1">
<path style=" stroke:none;fill-rule:nonzero;fill:rgb(70.196078%,56.862745%,23.529412%);fill-opacity:1;" d="M 699.351562 40.167969 C 712.164062 40.21875 725.371094 40.765625 738.804688 41.699219 C 709.414062 55.554688 664.683594 71.484375 620.355469 83.117188 C 589.695312 91.167969 559.054688 97.457031 533.691406 100.53125 C 518.066406 102.429688 504.808594 102.632812 495.007812 102.015625 C 509.789062 82.523438 540.113281 65.101562 582.804688 53.800781 C 614.34375 45.449219 652.164062 40.496094 693.886719 40.179688 C 695.699219 40.164062 697.523438 40.164062 699.351562 40.167969 Z M 100.648438 40.167969 C 102.476562 40.164062 104.296875 40.164062 106.113281 40.179688 C 147.835938 40.496094 185.65625 45.453125 217.195312 53.800781 C 259.886719 65.101562 290.210938 82.523438 304.992188 102.019531 C 295.191406 102.632812 281.933594 102.429688 266.308594 100.53125 C 240.945312 97.457031 210.304688 91.167969 179.644531 83.117188 C 135.316406 71.480469 90.585938 55.554688 61.195312 41.699219 C 74.628906 40.769531 87.835938 40.21875 100.648438 40.167969 Z M 753.503906 60.675781 C 736.734375 134.960938 738.230469 237.773438 757.960938 306.980469 C 702.84375 312.5625 642.589844 304.074219 592.597656 289.492188 C 565.429688 281.570312 541.328125 271.933594 522.910156 262.265625 C 516.214844 258.75 510.378906 255.210938 505.40625 251.808594 C 507.214844 250.46875 508.957031 249.078125 510.625 247.640625 C 533.816406 227.582031 538.527344 198.871094 532.546875 171.722656 C 528.8125 154.777344 520.910156 138.136719 509.253906 123.957031 C 548.300781 124.472656 594.453125 115.34375 639.238281 102.96875 C 682.351562 91.058594 723.183594 76.003906 753.503906 60.675781 Z M 46.496094 60.675781 C 76.816406 76 117.648438 91.058594 160.761719 102.96875 C 205.546875 115.34375 251.699219 124.472656 290.746094 123.957031 C 279.089844 138.132812 271.1875 154.777344 267.453125 171.722656 C 261.472656 198.871094 266.183594 227.582031 289.375 247.640625 C 291.042969 249.078125 292.785156 250.46875 294.59375 251.808594 C 289.621094 255.210938 283.785156 258.75 277.089844 262.265625 C 258.671875 271.933594 234.570312 281.570312 207.402344 289.492188 C 157.410156 304.074219 97.15625 312.5625 42.039062 306.980469 C 61.769531 237.773438 63.265625 134.960938 46.496094 60.675781 Z M 400 101.597656 C 425.320312 101.597656 450.355469 107.410156 465.789062 117.445312 C 484.625 129.699219 499.753906 152.269531 504.796875 175.160156 C 509.839844 198.054688 504.789062 220.488281 489.375 233.820312 C 471.457031 249.316406 436.058594 258.511719 400 258.511719 C 363.941406 258.511719 328.542969 249.316406 310.625 233.820312 C 295.210938 220.488281 290.160156 198.054688 295.203125 175.160156 C 300.246094 152.269531 315.375 129.699219 334.210938 117.445312 C 349.644531 107.410156 374.679688 101.597656 400 101.597656 Z M 482.34375 264.789062 C 489.335938 269.804688 497.546875 274.699219 506.777344 279.546875 C 527.421875 290.382812 553.320312 300.671875 582.402344 309.152344 C 584.882812 309.875 587.390625 310.582031 589.914062 311.277344 C 622.378906 387.691406 671.945312 461.34375 722.925781 526.875 C 709.710938 524.652344 693.320312 521.289062 676.679688 516.753906 C 643.464844 507.695312 607.457031 493.90625 584.941406 477.023438 L 567.132812 463.664062 L 561.320312 482.042969 C 549.5 519.402344 526.796875 538.492188 502.355469 559.832031 C 447.179688 483.640625 422.324219 383.417969 415.976562 279.132812 C 439.65625 277.722656 462.832031 273.113281 482.34375 264.789062 Z M 317.65625 264.789062 C 337.167969 273.113281 360.34375 277.722656 384.023438 279.132812 C 377.675781 383.417969 352.820312 483.640625 297.644531 559.835938 C 273.203125 538.492188 250.503906 519.402344 238.679688 482.046875 L 232.867188 463.664062 L 215.054688 477.023438 C 192.542969 493.910156 156.535156 507.695312 123.320312 516.753906 C 106.679688 521.289062 90.289062 524.652344 77.074219 526.875 C 128.054688 461.34375 177.621094 387.691406 210.085938 311.277344 C 212.609375 310.582031 215.117188 309.875 217.597656 309.152344 C 246.679688 300.671875 272.578125 290.382812 293.222656 279.546875 C 302.457031 274.699219 310.664062 269.804688 317.65625 264.789062 Z M 317.65625 264.789062 "/>
</g>
</svg>
